<svg width="24" height="24" viewBox="0 0 24 24" fill="none" xmlns="http://www.w3.org/2000/svg">
<path d="M12 1C5.9247 1 1 5.9247 1 12C1 18.0753 5.9247 23 12 23C18.0753 23 23 18.0753 23 12C23 5.9247 18.0753 1 12 1Z" stroke="white" stroke-width="1.5" stroke-linecap="round" stroke-linejoin="round"/>
<path d="M3.49805 18.9803C3.49805 18.9803 5.94995 15.8497 11.9999 15.8497C18.0499 15.8497 20.5029 18.9803 20.5029 18.9803M11.9999 11.9997C12.8752 11.9997 13.7145 11.652 14.3334 11.0331C14.9523 10.4142 15.2999 9.57487 15.2999 8.69966C15.2999 7.82444 14.9523 6.98508 14.3334 6.36621C13.7145 5.74734 12.8752 5.39966 11.9999 5.39966C11.1247 5.39966 10.2854 5.74734 9.66649 6.36621C9.04762 6.98508 8.69995 7.82444 8.69995 8.69966C8.69995 9.57487 9.04762 10.4142 9.66649 11.0331C10.2854 11.652 11.1247 11.9997 11.9999 11.9997V11.9997Z" stroke="white" stroke-width="1.5" stroke-linecap="round" stroke-linejoin="round"/>
</svg>
