<svg width="128" height="25" viewBox="0 0 128 25" fill="none" xmlns="http://www.w3.org/2000/svg">
<path d="M45.7918 1.3503C45.5639 1.34651 45.3396 1.40734 45.1449 1.52574C44.9501 1.64414 44.7929 1.81526 44.6914 2.01932L37.7449 16.2312L30.6546 2.01932C30.5646 1.84623 30.4353 1.6966 30.2772 1.5824C30.119 1.46819 29.9363 1.39257 29.7437 1.36158C29.5511 1.33059 29.3539 1.3451 29.1679 1.40394C28.9819 1.46278 28.8123 1.56432 28.6725 1.70044C28.5477 1.81308 28.4485 1.95119 28.3817 2.10543C28.3148 2.25967 28.2818 2.42646 28.2849 2.59454V18.7759C28.2849 19.1076 28.4166 19.4257 28.6511 19.6602C28.8856 19.8947 29.2037 20.0264 29.5354 20.0264C29.867 20.0264 30.1851 19.8947 30.4196 19.6602C30.6541 19.4257 30.7859 19.1076 30.7859 18.7759V7.11508L36.4944 18.5634C36.5894 18.7919 36.7528 18.9854 36.9621 19.1175C37.1714 19.2495 37.4164 19.3137 37.6636 19.3012C37.8818 19.2998 38.0959 19.2414 38.2846 19.1317C38.4732 19.0221 38.6299 18.8649 38.739 18.6759L44.5413 6.88999V18.7697C44.5443 19.0103 44.6165 19.2449 44.7495 19.4454C44.8824 19.6459 45.0704 19.8038 45.2908 19.9001C45.5113 19.9965 45.7548 20.0272 45.9923 19.9886C46.2298 19.95 46.451 19.8438 46.6296 19.6826C46.7509 19.5704 46.847 19.4339 46.9116 19.2819C46.9763 19.13 47.008 18.9661 47.0048 18.801V2.59454C47.0095 2.42853 46.9797 2.26336 46.9172 2.10946C46.8548 1.95556 46.7611 1.81628 46.6421 1.70044C46.4134 1.47996 46.1094 1.35477 45.7918 1.3503Z" fill="white"/>
<path d="M59.9351 7.67157C58.964 7.10296 57.8524 6.81912 56.7276 6.85249C55.5572 6.83061 54.4023 7.12204 53.3825 7.69658C52.4221 8.25532 51.6329 9.06615 51.1003 10.0413C50.5337 11.1019 50.2495 12.2904 50.275 13.4926C50.2531 14.6947 50.5554 15.8805 51.1504 16.9252C51.7225 17.9134 52.5581 18.723 53.5638 19.2637C54.6466 19.8457 55.8612 20.1385 57.0902 20.114C57.8741 20.1041 58.6512 19.9668 59.3911 19.7076C60.1255 19.4809 60.8136 19.1252 61.4232 18.6572C61.5462 18.5768 61.6464 18.4662 61.7143 18.3358C61.7822 18.2055 61.8155 18.06 61.8108 17.9131C61.7951 17.7597 61.7488 17.6109 61.6747 17.4756C61.6006 17.3403 61.5002 17.2212 61.3794 17.1253C61.1759 16.9525 60.9146 16.8632 60.6479 16.8752C60.367 16.8836 60.0959 16.9798 59.8726 17.1503C59.4892 17.4199 59.0677 17.6306 58.6221 17.7756C58.1377 17.9552 57.6256 18.0483 57.109 18.0507C56.2664 18.0667 55.4344 17.862 54.6955 17.4567C54.0081 17.0744 53.4376 16.5125 53.0449 15.831C52.7769 15.3661 52.5988 14.8549 52.5197 14.3242H61.5982C61.7429 14.3291 61.8871 14.3051 62.0224 14.2536C62.1577 14.202 62.2813 14.124 62.3861 14.0241C62.4875 13.9276 62.5676 13.8111 62.6215 13.6819C62.6753 13.5527 62.7016 13.4137 62.6987 13.2738C62.7218 12.1234 62.4801 10.9832 61.9922 9.94121C61.5413 9.00103 60.8266 8.2124 59.9351 7.67157ZM54.4016 9.50354C55.102 9.07887 55.9087 8.86203 56.7276 8.87829C57.4443 8.85748 58.1513 9.0489 58.7596 9.42851C59.319 9.80226 59.7663 10.3209 60.0539 10.9291C60.2699 11.3938 60.4112 11.8897 60.4728 12.3984H52.5259C52.6038 11.9658 52.7383 11.5454 52.9261 11.1479C53.2471 10.4677 53.76 9.89609 54.4016 9.50354Z" fill="white"/>
<path d="M70.7581 17.6316H69.9453C69.6969 17.6341 69.4513 17.5789 69.2278 17.4704C69.0043 17.3619 68.809 17.2031 68.6573 17.0064C68.2986 16.5517 68.1125 15.9846 68.1321 15.4057V9.4784H70.1766C70.4729 9.49255 70.7628 9.38919 70.9832 9.19079C71.0851 9.10141 71.166 8.99059 71.22 8.86628C71.2741 8.74197 71.3 8.60724 71.2958 8.47175C71.3022 8.32954 71.2775 8.18766 71.2235 8.05594C71.1695 7.92423 71.0875 7.80583 70.9832 7.70895C70.761 7.51343 70.4724 7.4105 70.1766 7.42134H68.1446V3.98248C68.1501 3.82324 68.1229 3.66456 68.0649 3.51618C68.0068 3.36781 67.9191 3.23286 67.807 3.11964C67.6926 3.00955 67.5573 2.92351 67.4091 2.86659C67.2609 2.80967 67.1028 2.78304 66.9441 2.78825C66.7854 2.78115 66.6269 2.80718 66.4788 2.86468C66.3307 2.92218 66.1962 3.0099 66.0839 3.12224C65.9715 3.23458 65.8838 3.36909 65.8263 3.51719C65.7688 3.6653 65.7428 3.82376 65.7499 3.98248V7.42134H64.6495C64.3537 7.4105 64.0651 7.51343 63.8429 7.70895C63.7386 7.80583 63.6566 7.92423 63.6026 8.05594C63.5486 8.18766 63.5239 8.32954 63.5303 8.47175C63.5261 8.60724 63.552 8.74197 63.6061 8.86628C63.6601 8.99059 63.741 9.10141 63.8429 9.19079C64.0633 9.38919 64.3532 9.49255 64.6495 9.4784H65.7499V15.3807C65.7398 16.2034 65.9285 17.0164 66.3001 17.7504C66.6468 18.4264 67.1668 18.9982 67.807 19.4073C68.448 19.8202 69.1954 20.0374 69.9578 20.0326H70.3892C70.7568 20.048 71.1173 19.9279 71.4021 19.6949C71.5293 19.5921 71.6309 19.4613 71.6993 19.3127C71.7676 19.1641 71.8007 19.0018 71.796 18.8384C71.8101 18.524 71.7052 18.2159 71.5022 17.9755C71.4123 17.8656 71.2986 17.7776 71.1697 17.718C71.0408 17.6584 70.9001 17.6289 70.7581 17.6316Z" fill="white"/>
<path d="M83.5005 7.69653C82.4501 7.1424 81.2805 6.85278 80.0929 6.85278C78.9053 6.85278 77.7357 7.1424 76.6853 7.69653C75.7116 8.25462 74.906 9.0645 74.3531 10.0412C73.7997 11.103 73.5107 12.2827 73.5107 13.4801C73.5107 14.6774 73.7997 15.8571 74.3531 16.9189C74.9031 17.8962 75.7095 18.7047 76.6853 19.2574C77.7377 19.8157 78.9109 20.1077 80.1023 20.1077C81.2936 20.1077 82.4669 19.8157 83.5193 19.2574C84.4942 18.7078 85.2973 17.8983 85.8389 16.9189C86.4102 15.8664 86.6989 14.6837 86.6768 13.4863C86.6965 12.2813 86.3966 11.0927 85.8077 10.0412C85.2636 9.06625 84.4666 8.2562 83.5005 7.69653ZM83.7944 15.8248C83.4518 16.4782 82.9345 17.0237 82.3 17.4004C81.8128 17.6917 81.272 17.8818 80.7097 17.9596C80.1474 18.0373 79.5753 18.001 79.0273 17.8527C78.4794 17.7045 77.9669 17.4475 77.5205 17.0969C77.0741 16.7463 76.7029 16.3094 76.4289 15.8122C76.0506 15.0986 75.8612 14.3001 75.8787 13.4926C75.8627 12.6812 76.0519 11.879 76.4289 11.1604C76.7796 10.5054 77.3001 9.95682 77.9358 9.57228C78.6058 9.20226 79.3587 9.00817 80.1242 9.00817C80.8896 9.00817 81.6425 9.20226 82.3125 9.57228C82.9474 9.95388 83.4646 10.5035 83.8069 11.1604C84.177 11.8811 84.3618 12.6826 84.3446 13.4926C84.3594 14.2998 84.1701 15.0977 83.7944 15.8122V15.8248Z" fill="white"/>
<path d="M100.489 6.92123C100.329 6.91657 100.17 6.94344 100.021 7.00031C99.8719 7.05717 99.7354 7.14291 99.6195 7.25261C99.5026 7.36812 99.4111 7.50674 99.3508 7.65962C99.2905 7.81249 99.2628 7.97626 99.2693 8.14046V14.8806C99.2772 15.4345 99.111 15.9769 98.7942 16.4312C98.4683 16.9019 98.0269 17.2808 97.5124 17.5317C96.9455 17.8122 96.3191 17.9517 95.6867 17.9381C95.0171 17.9486 94.3539 17.8053 93.7484 17.5192C93.173 17.2394 92.6972 16.7899 92.3854 16.2312C92.0292 15.5494 91.8568 14.7865 91.8852 14.0178V8.14046C91.8905 7.97883 91.8627 7.81783 91.8036 7.66731C91.7444 7.51679 91.6552 7.37993 91.5413 7.26512C91.4256 7.15241 91.2886 7.06394 91.1383 7.00488C90.988 6.94583 90.8274 6.91739 90.6659 6.92123C90.5021 6.91253 90.3382 6.93787 90.1846 6.99565C90.0311 7.05343 89.8911 7.14239 89.7736 7.25694C89.6562 7.37149 89.5637 7.50913 89.502 7.6612C89.4404 7.81326 89.4109 7.97644 89.4155 8.14046V14.0178C89.3803 15.1804 89.6451 16.3324 90.1845 17.3629C90.6509 18.2385 91.364 18.9581 92.2353 19.4324C93.1443 19.9114 94.1591 20.1544 95.1865 20.139C96.1807 20.1566 97.1627 19.9175 98.0376 19.4449C98.481 19.2018 98.8873 18.8965 99.2443 18.5383V18.8009C99.2454 19.0475 99.3193 19.2882 99.4568 19.4929C99.5942 19.6976 99.7891 19.8571 100.017 19.9513C100.245 20.0455 100.495 20.0703 100.737 20.0224C100.979 19.9746 101.202 19.8564 101.376 19.6825C101.486 19.5666 101.572 19.4301 101.629 19.281C101.686 19.1319 101.712 18.973 101.708 18.8134V8.14046C101.719 7.97464 101.695 7.80828 101.636 7.65294C101.577 7.49759 101.484 7.35701 101.365 7.24097C101.246 7.12492 101.103 7.03621 100.947 6.98099C100.79 6.92577 100.623 6.90538 100.457 6.92123H100.489Z" fill="white"/>
<path d="M113.944 7.26515C113.289 6.91338 112.548 6.75305 111.805 6.80246C110.887 6.79366 109.982 7.02423 109.179 7.47148C108.654 7.76205 108.184 8.14304 107.791 8.59692V8.14049C107.791 7.82377 107.666 7.52001 107.442 7.29605C107.218 7.07209 106.914 6.94627 106.597 6.94627C106.28 6.94627 105.977 7.07209 105.753 7.29605C105.529 7.52001 105.403 7.82377 105.403 8.14049V18.826C105.39 18.988 105.411 19.1509 105.464 19.3046C105.517 19.4584 105.6 19.5997 105.709 19.7201C105.955 19.9314 106.273 20.039 106.597 20.0202C106.76 20.0318 106.923 20.0101 107.077 19.9563C107.23 19.9026 107.371 19.8179 107.491 19.7076C107.597 19.5876 107.678 19.448 107.729 19.2967C107.781 19.1454 107.802 18.9854 107.791 18.826V11.842C107.782 11.5078 107.84 11.1752 107.961 10.8638C108.082 10.5524 108.265 10.2684 108.498 10.0287C109.029 9.51713 109.703 9.17727 110.43 9.05335C111.341 8.8805 112.277 8.89753 113.181 9.10337C113.371 9.14336 113.567 9.14336 113.756 9.10337C113.93 9.07426 114.091 8.99368 114.219 8.87203C114.367 8.73782 114.464 8.55676 114.494 8.35933C114.539 8.14164 114.509 7.91523 114.409 7.71668C114.309 7.51814 114.145 7.35906 113.944 7.26515Z" fill="white"/>
<path d="M127.105 10.0975C126.523 9.09843 125.689 8.26954 124.686 7.69346C123.683 7.11737 122.547 6.81421 121.39 6.81421C120.234 6.81421 119.098 7.11737 118.095 7.69346C117.092 8.26954 116.258 9.09843 115.676 10.0975C115.088 11.1313 114.788 12.3036 114.807 13.4926C114.787 14.6692 115.062 15.832 115.607 16.8752C116.114 17.8444 116.869 18.662 117.795 19.2448C118.739 19.812 119.82 20.1116 120.922 20.1116C122.023 20.1116 123.104 19.812 124.048 19.2448C124.612 18.8861 125.113 18.436 125.53 17.9131V18.8259C125.526 18.9897 125.556 19.1525 125.618 19.3041C125.68 19.4557 125.773 19.593 125.89 19.7073C126.007 19.8217 126.147 19.9107 126.3 19.9688C126.453 20.0269 126.616 20.0529 126.78 20.0452C126.942 20.0493 127.103 20.0203 127.254 19.9601C127.404 19.8999 127.541 19.8097 127.655 19.695C127.769 19.5814 127.858 19.4456 127.917 19.2961C127.977 19.1466 128.004 18.9866 127.999 18.8259V13.4926C128.01 12.3013 127.702 11.1288 127.105 10.0975ZM125.086 15.7747C124.737 16.4347 124.217 16.9879 123.579 17.3753C122.921 17.7605 122.172 17.9636 121.409 17.9636C120.647 17.9636 119.898 17.7605 119.24 17.3753C118.59 16.9907 118.056 16.4377 117.695 15.7747C117.319 15.0735 117.128 14.2882 117.139 13.4926C117.127 12.6889 117.318 11.8953 117.695 11.1854C118.057 10.5267 118.585 9.97472 119.227 9.58476C119.887 9.20392 120.635 9.00342 121.397 9.00342C122.158 9.00342 122.907 9.20392 123.566 9.58476C124.201 9.97583 124.721 10.5281 125.073 11.1854C125.445 11.8969 125.634 12.6898 125.623 13.4926C125.637 14.2862 125.452 15.0708 125.086 15.7747Z" fill="white"/>
<path d="M0.0237973 1.58793L7.7456 14.2554C7.76261 14.2849 7.77157 14.3183 7.77157 14.3524C7.77157 14.3864 7.76261 14.4198 7.7456 14.4493L3.20631 24.3532C3.18743 24.3956 3.18339 24.4431 3.19485 24.4881C3.20631 24.533 3.2326 24.5728 3.26946 24.601C3.30632 24.6292 3.35161 24.6442 3.39801 24.6434C3.44441 24.6427 3.48922 24.6264 3.52518 24.597L14.9985 14.8807C15.0208 14.8619 15.0388 14.8385 15.0511 14.812C15.0635 14.7855 15.0698 14.7567 15.0698 14.7275C15.0698 14.6983 15.0635 14.6695 15.0511 14.643C15.0388 14.6165 15.0208 14.5931 14.9985 14.5743L0.336421 1.33158C0.299518 1.3016 0.253396 1.28529 0.205853 1.2854C0.15831 1.28551 0.112265 1.30204 0.0755015 1.33218C0.0387382 1.36233 0.0135131 1.40425 0.00409192 1.45085C-0.00532923 1.49745 0.00163179 1.54587 0.0237973 1.58793Z" fill="white"/>
<path d="M20.7257 15.9623L15.78 7.80283C15.7647 7.77395 15.7567 7.74175 15.7567 7.70905C15.7567 7.67635 15.7647 7.64415 15.78 7.61526L18.7187 1.21898C18.7375 1.17658 18.7416 1.12906 18.7301 1.0841C18.7187 1.03913 18.6924 0.999331 18.6555 0.971141C18.6186 0.942951 18.5734 0.928012 18.527 0.928736C18.4805 0.92946 18.4357 0.945805 18.3998 0.975132L10.8968 7.30889C10.8745 7.32767 10.8565 7.35111 10.8442 7.37758C10.8318 7.40404 10.8254 7.43288 10.8254 7.46208C10.8254 7.49127 10.8318 7.52011 10.8442 7.54657C10.8565 7.57304 10.8745 7.59648 10.8968 7.61526L20.4131 16.2187C20.45 16.2486 20.4961 16.265 20.5436 16.2648C20.5912 16.2647 20.6372 16.2482 20.674 16.2181C20.7108 16.1879 20.736 16.146 20.7454 16.0994C20.7548 16.0528 20.7479 16.0044 20.7257 15.9623Z" fill="white"/>
</svg>
