<svg width="562" height="104" viewBox="0 0 562 104" fill="none" xmlns="http://www.w3.org/2000/svg">
<path d="M200.819 1.84902C199.819 1.83241 198.836 2.09916 197.982 2.61839C197.128 3.13762 196.438 3.8881 195.993 4.78296L165.529 67.1086L134.435 4.78296C134.04 4.0239 133.473 3.36772 132.78 2.86686C132.086 2.36601 131.285 2.03437 130.44 1.89848C129.596 1.76259 128.731 1.82621 127.915 2.08424C127.1 2.34228 126.356 2.78758 125.743 3.38454C125.195 3.87853 124.76 4.48418 124.467 5.16059C124.174 5.83701 124.029 6.56847 124.043 7.3056V78.2685C124.043 79.723 124.62 81.1179 125.649 82.1463C126.677 83.1748 128.072 83.7525 129.527 83.7525C130.981 83.7525 132.376 83.1748 133.404 82.1463C134.433 81.1179 135.011 79.723 135.011 78.2685V27.1303L160.045 77.3363C160.462 78.3383 161.178 79.1871 162.096 79.7663C163.014 80.3455 164.089 80.6268 165.173 80.5718C166.13 80.566 167.069 80.3099 167.896 79.8289C168.723 79.3478 169.41 78.6587 169.889 77.8298L195.335 26.1431V78.2411C195.348 79.2961 195.665 80.3249 196.248 81.2042C196.831 82.0835 197.655 82.776 198.622 83.1986C199.588 83.6212 200.657 83.7559 201.698 83.5867C202.739 83.4174 203.71 82.9514 204.493 82.2444C205.025 81.7527 205.446 81.154 205.73 80.4876C206.013 79.8212 206.152 79.1023 206.138 78.3782V7.3056C206.159 6.57756 206.028 5.85319 205.754 5.17826C205.48 4.50334 205.07 3.89256 204.548 3.38454C203.545 2.41763 202.212 1.86863 200.819 1.84902Z" fill="#ED353F"/>
<path d="M262.843 29.5709C258.584 27.0773 253.709 25.8325 248.776 25.9789C243.644 25.8829 238.579 27.1609 234.107 29.6806C229.895 32.1309 226.434 35.6868 224.098 39.9631C221.613 44.6143 220.367 49.8267 220.479 55.0989C220.383 60.3705 221.709 65.5707 224.318 70.1525C226.827 74.4859 230.491 78.0364 234.902 80.4075C239.65 82.96 244.977 84.2444 250.367 84.1367C253.804 84.0933 257.212 83.4913 260.457 82.3544C263.678 81.3602 266.695 79.8003 269.369 77.7478C269.908 77.3954 270.348 76.9101 270.645 76.3387C270.943 75.7673 271.089 75.1288 271.069 74.4848C271 73.8119 270.797 73.1596 270.472 72.5662C270.147 71.9729 269.706 71.4505 269.177 71.0299C268.284 70.2722 267.138 69.8803 265.969 69.9331C264.737 69.9701 263.548 70.392 262.568 71.1396C260.887 72.3218 259.039 73.246 257.084 73.8816C254.96 74.6695 252.714 75.0778 250.449 75.0881C246.754 75.1586 243.105 74.2605 239.865 72.4832C236.85 70.8067 234.348 68.3425 232.626 65.354C231.451 63.315 230.67 61.0733 230.323 58.7457H270.136C270.771 58.7673 271.403 58.6619 271.997 58.4359C272.59 58.2099 273.132 57.8678 273.591 57.4296C274.036 57.0066 274.388 56.4955 274.624 55.9289C274.86 55.3624 274.975 54.7528 274.962 54.1392C275.064 49.0944 274.004 44.0939 271.864 39.5243C269.887 35.4012 266.752 31.9427 262.843 29.5709ZM238.576 37.6049C241.647 35.7425 245.185 34.7916 248.776 34.8629C251.92 34.7717 255.02 35.6111 257.688 37.2759C260.141 38.9149 262.103 41.1895 263.364 43.8567C264.311 45.8947 264.931 48.0693 265.201 50.3004H230.35C230.691 48.4032 231.281 46.5593 232.105 44.8164C233.513 41.8331 235.762 39.3265 238.576 37.6049Z" fill="#ED353F"/>
<path d="M310.307 73.2505H306.742C305.653 73.2612 304.576 73.0191 303.596 72.5433C302.615 72.0676 301.759 71.3711 301.094 70.5085C299.521 68.5143 298.705 66.0274 298.79 63.489V37.4948H307.757C309.056 37.5569 310.327 37.1036 311.294 36.2335C311.741 35.8415 312.095 35.3555 312.332 34.8104C312.569 34.2652 312.683 33.6744 312.665 33.0802C312.693 32.4565 312.584 31.8343 312.348 31.2567C312.111 30.679 311.751 30.1598 311.294 29.7349C310.32 28.8775 309.054 28.4261 307.757 28.4736H298.845V13.3926C298.869 12.6943 298.75 11.9984 298.496 11.3477C298.241 10.697 297.856 10.1052 297.364 9.60867C296.863 9.12589 296.27 8.74855 295.62 8.49894C294.97 8.24934 294.276 8.13252 293.581 8.15541C292.884 8.12425 292.19 8.2384 291.54 8.49057C290.891 8.74274 290.301 9.12741 289.808 9.62009C289.315 10.1128 288.931 10.7026 288.678 11.3522C288.426 12.0017 288.312 12.6966 288.343 13.3926V28.4736H283.517C282.22 28.4261 280.954 28.8775 279.98 29.7349C279.523 30.1598 279.163 30.679 278.927 31.2567C278.69 31.8343 278.581 32.4565 278.609 33.0802C278.591 33.6744 278.705 34.2652 278.942 34.8104C279.179 35.3555 279.533 35.8415 279.98 36.2335C280.947 37.1036 282.218 37.5569 283.517 37.4948H288.343V63.3793C288.299 66.9871 289.127 70.5523 290.756 73.7715C292.277 76.736 294.557 79.2436 297.364 81.0378C300.176 82.8482 303.453 83.8009 306.797 83.7798H308.689C310.301 83.8475 311.882 83.3205 313.131 82.2991C313.688 81.848 314.134 81.2744 314.434 80.6228C314.734 79.9713 314.879 79.2594 314.858 78.5425C314.92 77.164 314.46 75.8128 313.57 74.7586C313.175 74.2766 312.677 73.8904 312.112 73.6292C311.546 73.3679 310.929 73.2385 310.307 73.2505Z" fill="#ED353F"/>
<path d="M366.189 29.6802C361.582 27.2501 356.453 25.98 351.245 25.98C346.037 25.98 340.907 27.2501 336.301 29.6802C332.03 32.1277 328.498 35.6794 326.073 39.9627C323.646 44.6192 322.379 49.7927 322.379 55.0437C322.379 60.2947 323.646 65.4682 326.073 70.1247C328.485 74.4105 332.022 77.9563 336.301 80.3798C340.916 82.8286 346.061 84.109 351.286 84.109C356.51 84.109 361.656 82.8286 366.271 80.3798C370.546 77.9699 374.068 74.4195 376.444 70.1247C378.949 65.5088 380.215 60.3222 380.118 55.0711C380.204 49.7867 378.889 44.5738 376.307 39.9627C373.921 35.687 370.425 32.1346 366.189 29.6802ZM367.477 65.3262C365.975 68.192 363.706 70.5842 360.924 72.236C358.787 73.5135 356.415 74.3475 353.95 74.6884C351.484 75.0292 348.975 74.8699 346.572 74.2199C344.169 73.5699 341.921 72.4425 339.964 70.9051C338.006 69.3677 336.378 67.4517 335.177 65.2714C333.517 62.1419 332.687 58.6398 332.764 55.0985C332.693 51.5404 333.523 48.0223 335.177 44.8709C336.714 41.9983 338.997 39.5926 341.785 37.9062C344.723 36.2835 348.025 35.4324 351.382 35.4324C354.738 35.4324 358.04 36.2835 360.979 37.9062C363.763 39.5797 366.031 41.9899 367.532 44.8709C369.156 48.0313 369.966 51.5464 369.89 55.0985C369.955 58.6385 369.125 62.1376 367.477 65.2714V65.3262Z" fill="#ED353F"/>
<path d="M440.689 26.2799C439.989 26.2595 439.292 26.3774 438.638 26.6267C437.984 26.8761 437.386 27.2521 436.877 27.7332C436.365 28.2398 435.963 28.8477 435.699 29.5181C435.435 30.1885 435.313 30.9067 435.342 31.6268V61.1856C435.376 63.6146 434.647 65.9932 433.258 67.9858C431.829 70.0496 429.893 71.7115 427.637 72.8117C425.15 74.042 422.404 74.6535 419.63 74.594C416.693 74.64 413.785 74.0115 411.13 72.7568C408.606 71.5301 406.52 69.5585 405.152 67.1083C403.59 64.1183 402.834 60.7728 402.959 57.4016V31.6268C402.982 30.918 402.86 30.2119 402.601 29.5519C402.341 28.8918 401.95 28.2916 401.451 27.788C400.943 27.2938 400.342 26.9058 399.683 26.6468C399.024 26.3878 398.32 26.2631 397.612 26.2799C396.893 26.2418 396.175 26.3529 395.501 26.6063C394.828 26.8597 394.214 27.2499 393.699 27.7522C393.183 28.2545 392.778 28.8582 392.508 29.525C392.237 30.1919 392.108 30.9075 392.128 31.6268V57.4016C391.974 62.5 393.135 67.5522 395.5 72.0713C397.546 75.9114 400.673 79.067 404.494 81.1473C408.481 83.2479 412.931 84.3133 417.436 84.2458C421.797 84.323 426.103 83.2747 429.94 81.2022C431.884 80.1357 433.666 78.7969 435.232 77.2263V78.3779C435.237 79.4592 435.561 80.515 436.164 81.4126C436.766 82.3102 437.621 83.0096 438.62 83.4228C439.62 83.8359 440.719 83.9445 441.78 83.7348C442.84 83.5251 443.815 83.0065 444.582 82.2441C445.063 81.7357 445.439 81.1373 445.689 80.4833C445.938 79.8293 446.056 79.1324 446.035 78.4328V31.6268C446.087 30.8997 445.979 30.1701 445.719 29.4888C445.46 28.8076 445.055 28.1911 444.533 27.6821C444.011 27.1732 443.384 26.7842 442.697 26.542C442.009 26.2999 441.277 26.2104 440.551 26.2799H440.689Z" fill="#ED353F"/>
<path d="M499.696 27.7884C496.823 26.2458 493.573 25.5427 490.319 25.7594C486.29 25.7207 482.321 26.7319 478.802 28.6933C476.499 29.9676 474.438 31.6384 472.715 33.6289V31.6273C472.715 30.2383 472.163 28.9061 471.181 27.924C470.199 26.9418 468.867 26.39 467.478 26.39C466.089 26.39 464.757 26.9418 463.775 27.924C462.793 28.9061 462.241 30.2383 462.241 31.6273V78.488C462.186 79.1986 462.277 79.9129 462.508 80.5871C462.739 81.2613 463.105 81.8813 463.584 82.4091C464.663 83.336 466.059 83.8079 467.478 83.7252C468.191 83.7762 468.906 83.6809 469.58 83.4451C470.255 83.2093 470.873 82.8381 471.399 82.3542C471.862 81.8283 472.217 81.216 472.443 80.5525C472.669 79.889 472.761 79.1874 472.715 78.488V47.8599C472.674 46.3947 472.927 44.9361 473.459 43.5703C473.992 42.2045 474.792 40.9592 475.814 39.9081C478.145 37.6644 481.097 36.174 484.286 35.6306C488.28 34.8725 492.388 34.9472 496.351 35.8499C497.183 36.0253 498.042 36.0253 498.874 35.8499C499.636 35.7223 500.343 35.3689 500.903 34.8354C501.552 34.2468 501.978 33.4528 502.109 32.5869C502.306 31.6323 502.174 30.6394 501.736 29.7687C501.298 28.8979 500.58 28.2003 499.696 27.7884Z" fill="#ED353F"/>
<path d="M557.415 40.2094C554.861 35.8282 551.203 32.1931 546.805 29.6667C542.408 27.1403 537.425 25.8108 532.354 25.8108C527.282 25.8108 522.299 27.1403 517.902 29.6667C513.504 32.1931 509.846 35.8282 507.292 40.2094C504.715 44.7431 503.399 49.8841 503.48 55.0984C503.396 60.2584 504.602 65.3578 506.99 69.9327C509.216 74.1832 512.527 77.7688 516.587 80.3248C520.728 82.8121 525.467 84.1261 530.297 84.1261C535.127 84.1261 539.867 82.8121 544.007 80.3248C546.482 78.7516 548.678 76.7779 550.506 74.4844V78.4877C550.49 79.2059 550.622 79.9197 550.894 80.5847C551.165 81.2497 551.571 81.8516 552.085 82.3531C552.6 82.8546 553.212 83.2449 553.883 83.4998C554.555 83.7547 555.272 83.8686 555.99 83.8346C556.7 83.8526 557.407 83.7257 558.067 83.4617C558.727 83.1977 559.326 82.8021 559.828 82.2991C560.327 81.8007 560.718 81.2053 560.978 80.5497C561.237 79.8942 561.359 79.1924 561.337 78.4877V55.0984C561.385 49.874 560.031 44.7323 557.415 40.2094ZM548.559 65.1068C547.031 68.0011 544.748 70.427 541.951 72.1263C539.064 73.8155 535.78 74.7058 532.436 74.7058C529.092 74.7058 525.807 73.8155 522.921 72.1263C520.072 70.4394 517.732 68.0141 516.148 65.1068C514.499 62.0317 513.659 58.5876 513.708 55.0984C513.656 51.5741 514.496 48.0937 516.148 44.9805C517.733 42.0919 520.05 39.6711 522.866 37.961C525.759 36.2908 529.041 35.4115 532.381 35.4115C535.721 35.4115 539.003 36.2908 541.896 37.961C544.68 39.676 546.96 42.098 548.504 44.9805C550.135 48.1008 550.964 51.5778 550.917 55.0984C550.978 58.579 550.167 62.0196 548.559 65.1068Z" fill="#ED353F"/>
<path d="M0.104362 2.89045L33.968 58.4433C34.0427 58.5726 34.0819 58.7191 34.0819 58.8684C34.0819 59.0176 34.0427 59.1642 33.968 59.2934L14.0611 102.727C13.9783 102.913 13.9606 103.121 14.0109 103.318C14.0612 103.515 14.1764 103.69 14.3381 103.814C14.4998 103.937 14.6984 104.003 14.9019 103.999C15.1054 103.996 15.3018 103.925 15.4596 103.796L65.7752 61.1853C65.8733 61.103 65.9521 61.0002 66.0061 60.8841C66.0602 60.7681 66.0882 60.6416 66.0882 60.5136C66.0882 60.3855 66.0602 60.259 66.0061 60.143C65.9521 60.0269 65.8733 59.9241 65.7752 59.8418L1.47536 1.76623C1.31353 1.63477 1.11126 1.56324 0.902761 1.56372C0.694264 1.56421 0.492333 1.63668 0.331109 1.76888C0.169885 1.90109 0.059261 2.08491 0.0179449 2.28927C-0.0233711 2.49364 0.00715616 2.706 0.104362 2.89045Z" fill="#ED353F"/>
<path d="M90.892 65.9293L69.2027 30.1462C69.1355 30.0195 69.1004 29.8783 69.1004 29.7349C69.1004 29.5915 69.1355 29.4503 69.2027 29.3236L82.0901 1.27295C82.1729 1.08704 82.1906 0.878645 82.1404 0.681431C82.0901 0.484218 81.9749 0.309702 81.8132 0.186077C81.6515 0.0624514 81.4529 -0.00306477 81.2494 0.000110193C81.0459 0.00328516 80.8494 0.0749675 80.6917 0.203576L47.7877 27.98C47.6897 28.0624 47.6109 28.1652 47.5568 28.2813C47.5028 28.3973 47.4747 28.5238 47.4747 28.6518C47.4747 28.7799 47.5028 28.9063 47.5568 29.0224C47.6109 29.1384 47.6897 29.2412 47.7877 29.3236L89.521 67.0535C89.6828 67.185 89.8851 67.2565 90.0935 67.256C90.302 67.2555 90.504 67.1831 90.6652 67.0509C90.8264 66.9187 90.9371 66.7348 90.9784 66.5305C91.0197 66.3261 90.9892 66.1137 90.892 65.9293Z" fill="#ED353F"/>
</svg>
